<svg width="99" height="43" viewBox="0 0 99 43" fill="none" xmlns="http://www.w3.org/2000/svg">
<path d="M17.0962 42.366V33.724H0.160156V26.822L19.5902 1.88202H24.8682V26.764H29.9722V33.724H24.8682V42.366H17.0962ZM7.93216 26.764H17.9662V13.656L7.93216 26.764Z" fill="#6B3BA8"/>
<path d="M64.9049 18.006C64.9049 21.4087 64.2476 24.444 62.9329 27.112C61.6569 29.7414 59.8783 31.81 57.5969 33.318C55.3543 34.826 52.8023 35.58 49.9409 35.58C47.0796 35.58 44.5083 34.826 42.2269 33.318C39.9843 31.81 38.2056 29.7414 36.8909 27.112C35.6149 24.444 34.9769 21.4087 34.9769 18.006C34.9769 14.6034 35.6149 11.5874 36.8909 8.95802C38.2056 6.29002 39.9843 4.20202 42.2269 2.69402C44.5083 1.14736 47.0796 0.374023 49.9409 0.374023C52.8023 0.374023 55.3543 1.14736 57.5969 2.69402C59.8783 4.20202 61.6569 6.29002 62.9329 8.95802C64.2476 11.5874 64.9049 14.6034 64.9049 18.006ZM57.0749 18.006C57.0749 14.9127 56.3983 12.3994 55.0449 10.466C53.7303 8.49402 52.0289 7.50802 49.9409 7.50802C47.7756 7.50802 46.0356 8.49402 44.7209 10.466C43.4063 12.3994 42.7489 14.9127 42.7489 18.006C42.7489 21.0994 43.4063 23.6127 44.7209 25.546C46.0356 27.4794 47.7756 28.446 49.9409 28.446C52.0289 28.446 53.7303 27.4794 55.0449 25.546C56.3983 23.6127 57.0749 21.0994 57.0749 18.006Z" fill="#6B3BA8"/>
<path d="M85.8579 42.366V33.724H68.9219V26.822L88.3519 1.88202H93.6299V26.764H98.7339V33.724H93.6299V42.366H85.8579ZM76.6939 26.764H86.7279V13.656L76.6939 26.764Z" fill="#6B3BA8"/>
</svg>
