<svg width="18" height="19" viewBox="0 0 18 19" fill="none" xmlns="http://www.w3.org/2000/svg">
<path d="M9 0.75C4.16797 0.75 0.25 4.66797 0.25 9.5C0.25 14.332 4.16797 18.25 9 18.25C13.832 18.25 17.75 14.332 17.75 9.5C17.75 4.66797 13.832 0.75 9 0.75ZM9 14.5781C8.56836 14.5781 8.21875 14.2285 8.21875 13.7969C8.21875 13.3652 8.56836 13.0156 9 13.0156C9.43164 13.0156 9.78125 13.3652 9.78125 13.7969C9.78125 14.2285 9.43164 14.5781 9 14.5781ZM10.2285 10.291C10.0516 10.3593 9.89944 10.4793 9.79179 10.6354C9.68413 10.7915 9.62601 10.9764 9.625 11.166V11.6094C9.625 11.6953 9.55469 11.7656 9.46875 11.7656H8.53125C8.44531 11.7656 8.375 11.6953 8.375 11.6094V11.1895C8.375 10.7383 8.50586 10.293 8.76367 9.92187C9.01562 9.55859 9.36719 9.28125 9.78125 9.12305C10.4453 8.86719 10.875 8.31055 10.875 7.70312C10.875 6.8418 10.0332 6.14062 9 6.14062C7.9668 6.14062 7.125 6.8418 7.125 7.70312V7.85156C7.125 7.9375 7.05469 8.00781 6.96875 8.00781H6.03125C5.94531 8.00781 5.875 7.9375 5.875 7.85156V7.70312C5.875 6.93555 6.21094 6.21875 6.82031 5.68555C7.40625 5.17188 8.17969 4.89062 9 4.89062C9.82031 4.89062 10.5937 5.17383 11.1797 5.68555C11.7891 6.21875 12.125 6.93555 12.125 7.70312C12.125 8.83203 11.3809 9.84766 10.2285 10.291Z" fill="#D3D3D3"/>
</svg>
