<svg width="36" height="36" viewBox="0 0 36 36" fill="none" xmlns="http://www.w3.org/2000/svg">
<path fill-rule="evenodd" clip-rule="evenodd" d="M22.5 6H13.5C9.3585 6 6 9.3585 6 13.5V22.5C6 26.6415 9.3585 30 13.5 30H22.5C26.6415 30 30 26.6415 30 22.5V13.5C30 9.3585 26.6415 6 22.5 6ZM27.75 22.5C27.75 25.395 25.395 27.75 22.5 27.75H13.5C10.605 27.75 8.25 25.395 8.25 22.5V13.5C8.25 10.605 10.605 8.25 13.5 8.25H22.5C25.395 8.25 27.75 10.605 27.75 13.5V22.5ZM18 12C14.6865 12 12 14.6865 12 18C12 21.3135 14.6865 24 18 24C21.3135 24 24 21.3135 24 18C24 14.6865 21.3135 12 18 12ZM18 21.75C15.933 21.75 14.25 20.067 14.25 18C14.25 15.9315 15.933 14.25 18 14.25C20.067 14.25 21.75 15.9315 21.75 18C21.75 20.067 20.067 21.75 18 21.75ZM25.2494 11.5499C25.2494 11.9914 24.8914 12.3494 24.4499 12.3494C24.0083 12.3494 23.6504 11.9914 23.6504 11.5499C23.6504 11.1083 24.0083 10.7504 24.4499 10.7504C24.8914 10.7504 25.2494 11.1083 25.2494 11.5499Z" fill="url(#paint0_linear)"/>
<rect x="0.5" y="0.5" width="35" height="35" rx="7.5" stroke="#F7F1FE"/>
<defs>
<linearGradient id="paint0_linear" x1="27" y1="7.5" x2="6" y2="30" gradientUnits="userSpaceOnUse">
<stop stop-color="#BE7BEF"/>
<stop offset="0.40625" stop-color="#FE659E"/>
<stop offset="0.619792" stop-color="#FC4544"/>
<stop offset="1" stop-color="#FFFF41"/>
</linearGradient>
</defs>
</svg>
