<svg width="20" height="20" viewBox="0 0 20 20" fill="none" xmlns="http://www.w3.org/2000/svg">
<path d="M17.8207 14.7933C18.0154 14.9887 18.1614 15.2272 18.2467 15.4895C18.3321 15.7518 18.3546 16.0305 18.3122 16.3031C18.2699 16.5757 18.1639 16.8344 18.0029 17.0585C17.842 17.2825 17.6305 17.4654 17.3857 17.5925C15.9866 18.3403 14.3565 18.5314 12.8223 18.1275C8.75067 17.1025 2.89817 11.25 1.87317 7.17832C1.46927 5.6442 1.66038 4.01409 2.40817 2.61499C2.53525 2.37016 2.7182 2.1587 2.94221 1.99772C3.16622 1.83675 3.42498 1.7308 3.69756 1.68844C3.97014 1.64608 4.24886 1.66851 4.51115 1.7539C4.77345 1.8393 5.01195 1.98527 5.20733 2.17999L6.94483 3.91666C7.1954 4.1647 7.36494 4.48283 7.43114 4.82914C7.49734 5.17545 7.45708 5.53368 7.31567 5.85666C7.16092 6.21902 6.94119 6.55003 6.66733 6.83332C4.68067 8.81999 11.1815 15.3208 13.1673 13.3333C13.4507 13.0585 13.782 12.8379 14.1448 12.6825C14.4678 12.5408 14.8261 12.5005 15.1724 12.5667C15.5188 12.6329 15.8369 12.8026 16.0848 13.0533L17.8207 14.7933Z" fill="#8C7AA4"/>
</svg>
