<svg width="80" height="28" viewBox="0 0 80 28" fill="none" xmlns="http://www.w3.org/2000/svg">
<path d="M28.6364 9.19976V10.494H28.3262V9.48876H24.2755L24.2691 10.494H23.959L23.9653 9.19976H24.2058C24.497 9.17463 24.6995 8.9317 24.8134 8.47097C24.9316 8.01024 25.0033 7.36521 25.0286 6.5359L25.073 5.09088H27.9528V9.19976H28.6364ZM25.3261 6.56103C25.3008 7.27307 25.2438 7.85526 25.1552 8.30762C25.0708 8.75997 24.9253 9.05735 24.7185 9.19976H27.63V5.37989H25.3641L25.3261 6.56103Z" fill="#181818"/>
<path d="M30.7664 9.51389C30.4542 9.51389 30.1715 9.44269 29.9183 9.30028C29.6693 9.15788 29.4731 8.96102 29.3296 8.70971C29.1862 8.45421 29.1144 8.1673 29.1144 7.84898C29.1144 7.53066 29.1862 7.24584 29.3296 6.99454C29.4731 6.73904 29.6693 6.54009 29.9183 6.39768C30.1715 6.25527 30.4542 6.18407 30.7664 6.18407C31.0787 6.18407 31.3593 6.25527 31.6082 6.39768C31.8614 6.54009 32.0597 6.73904 32.2032 6.99454C32.3466 7.24584 32.4184 7.53066 32.4184 7.84898C32.4184 8.1673 32.3466 8.45421 32.2032 8.70971C32.0597 8.96102 31.8614 9.15788 31.6082 9.30028C31.3593 9.44269 31.0787 9.51389 30.7664 9.51389ZM30.7664 9.23117C31.0196 9.23117 31.2453 9.17253 31.4437 9.05526C31.6462 8.93798 31.8044 8.77463 31.9184 8.56521C32.0365 8.35579 32.0956 8.11704 32.0956 7.84898C32.0956 7.58092 32.0365 7.34218 31.9184 7.13276C31.8044 6.92333 31.6462 6.75998 31.4437 6.64271C31.2453 6.52543 31.0196 6.46679 30.7664 6.46679C30.5132 6.46679 30.2854 6.52543 30.0828 6.64271C29.8845 6.75998 29.7263 6.92333 29.6081 7.13276C29.4942 7.34218 29.4372 7.58092 29.4372 7.84898C29.4372 8.11704 29.4942 8.35579 29.6081 8.56521C29.7263 8.77463 29.8845 8.93798 30.0828 9.05526C30.2854 9.17253 30.5132 9.23117 30.7664 9.23117Z" fill="#181818"/>
<path d="M34.7845 9.51389C34.4638 9.51389 34.1769 9.44269 33.9237 9.30028C33.6706 9.15788 33.4722 8.96102 33.3288 8.70971C33.1853 8.45421 33.1136 8.1673 33.1136 7.84898C33.1136 7.52647 33.1853 7.23956 33.3288 6.98825C33.4722 6.73276 33.6706 6.5359 33.9237 6.39768C34.1769 6.25527 34.4638 6.18407 34.7845 6.18407C35.0504 6.18407 35.2909 6.23642 35.5061 6.34114C35.7255 6.44166 35.9027 6.59035 36.0377 6.78721L35.8035 6.95684C35.6854 6.79349 35.5377 6.67202 35.3605 6.59244C35.1875 6.50867 34.9955 6.46679 34.7845 6.46679C34.5271 6.46679 34.295 6.52543 34.0883 6.64271C33.8857 6.75579 33.7254 6.91705 33.6073 7.12647C33.4933 7.3359 33.4364 7.57673 33.4364 7.84898C33.4364 8.12123 33.4933 8.36207 33.6073 8.57149C33.7254 8.78091 33.8857 8.94426 34.0883 9.06154C34.295 9.17463 34.5271 9.23117 34.7845 9.23117C34.9955 9.23117 35.1875 9.19138 35.3605 9.1118C35.5377 9.02803 35.6854 8.90447 35.8035 8.74112L36.0377 8.91076C35.9027 9.10761 35.7255 9.2584 35.5061 9.36311C35.2909 9.46363 35.0504 9.51389 34.7845 9.51389Z" fill="#181818"/>
<path d="M39.107 6.49192H37.8158V9.48876H37.4993V6.49192H36.2081V6.2092H39.107V6.49192Z" fill="#181818"/>
<path d="M42.4807 6.2092L40.7845 9.93483C40.6579 10.2238 40.5102 10.4291 40.3414 10.5505C40.1768 10.672 39.9806 10.7327 39.7528 10.7327C39.6009 10.7327 39.4574 10.7076 39.3224 10.6573C39.1916 10.6071 39.0797 10.5338 38.9869 10.4374L39.1452 10.1987C39.3139 10.3704 39.5186 10.4563 39.7591 10.4563C39.9194 10.4563 40.0566 10.4123 40.1705 10.3244C40.2844 10.2364 40.3899 10.0856 40.487 9.87201L40.6642 9.4762L39.1768 6.2092H39.5123L40.8351 9.14322L42.1579 6.2092H42.4807Z" fill="#181818"/>
<path d="M46.1321 6.2092V9.48876H45.8157V6.49192H43.5624V9.48876H43.2459V6.2092H46.1321Z" fill="#181818"/>
<path d="M47.4985 6.2092H47.8149V7.70448H50.0555V6.2092H50.372V9.48876H50.0555V7.98092H47.8149V9.48876H47.4985V6.2092Z" fill="#181818"/>
<path d="M53.0552 9.51389C52.7429 9.51389 52.4602 9.44269 52.207 9.30028C51.9581 9.15788 51.7619 8.96102 51.6184 8.70971C51.4749 8.45421 51.4032 8.1673 51.4032 7.84898C51.4032 7.53066 51.4749 7.24584 51.6184 6.99454C51.7619 6.73904 51.9581 6.54009 52.207 6.39768C52.4602 6.25527 52.7429 6.18407 53.0552 6.18407C53.3674 6.18407 53.648 6.25527 53.897 6.39768C54.1501 6.54009 54.3485 6.73904 54.4919 6.99454C54.6354 7.24584 54.7071 7.53066 54.7071 7.84898C54.7071 8.1673 54.6354 8.45421 54.4919 8.70971C54.3485 8.96102 54.1501 9.15788 53.897 9.30028C53.648 9.44269 53.3674 9.51389 53.0552 9.51389ZM53.0552 9.23117C53.3083 9.23117 53.5341 9.17253 53.7324 9.05526C53.9349 8.93798 54.0932 8.77463 54.2071 8.56521C54.3253 8.35579 54.3843 8.11704 54.3843 7.84898C54.3843 7.58092 54.3253 7.34218 54.2071 7.13276C54.0932 6.92333 53.9349 6.75998 53.7324 6.64271C53.5341 6.52543 53.3083 6.46679 53.0552 6.46679C52.802 6.46679 52.5741 6.52543 52.3716 6.64271C52.1733 6.75998 52.015 6.92333 51.8969 7.13276C51.783 7.34218 51.726 7.58092 51.726 7.84898C51.726 8.11704 51.783 8.35579 51.8969 8.56521C52.015 8.77463 52.1733 8.93798 52.3716 9.05526C52.5741 9.17253 52.802 9.23117 53.0552 9.23117Z" fill="#181818"/>
<path d="M57.3634 6.2092H57.6798V7.70448H59.9204V6.2092H60.2369V9.48876H59.9204V7.98092H57.6798V9.48876H57.3634V6.2092Z" fill="#181818"/>
<path d="M62.6985 6.18407C63.1078 6.18407 63.4222 6.28878 63.6416 6.4982C63.861 6.70344 63.9707 7.0071 63.9707 7.40919V9.48876H63.6669V8.90447C63.5614 9.09714 63.4074 9.24793 63.2049 9.35683C63.0023 9.46154 62.7597 9.51389 62.477 9.51389C62.1099 9.51389 61.8188 9.42803 61.6036 9.2563C61.3926 9.08458 61.2871 8.8584 61.2871 8.57777C61.2871 8.30552 61.3841 8.08563 61.5782 7.91809C61.7766 7.74636 62.0909 7.6605 62.5213 7.6605H63.6543V7.39663C63.6543 7.09087 63.5699 6.85841 63.4011 6.69925C63.2365 6.54009 62.9939 6.46051 62.6732 6.46051C62.4538 6.46051 62.2428 6.4982 62.0403 6.5736C61.842 6.64899 61.6732 6.74951 61.5339 6.87517L61.3757 6.64899C61.5403 6.50239 61.7386 6.3893 61.9707 6.30972C62.2027 6.22595 62.4454 6.18407 62.6985 6.18407ZM62.5213 9.2563C62.7956 9.2563 63.0277 9.19348 63.2175 9.06782C63.4116 8.94217 63.5572 8.75997 63.6543 8.52123V7.90553H62.5276C62.2027 7.90553 61.9664 7.96416 61.8188 8.08144C61.6753 8.19872 61.6036 8.35997 61.6036 8.56521C61.6036 8.77882 61.6837 8.94845 61.8441 9.07411C62.0044 9.19557 62.2302 9.2563 62.5213 9.2563Z" fill="#181818"/>
<path d="M29.7477 20.3292C29.4932 20.6911 29.1372 20.9625 28.6797 21.1435C28.2257 21.321 27.696 21.4098 27.0907 21.4098C26.4784 21.4098 25.935 21.2681 25.4603 20.9847C24.9857 20.6979 24.6177 20.2916 24.3562 19.7658C24.0983 19.2401 23.9659 18.6306 23.959 17.9376V17.2872C23.959 16.1639 24.2221 15.2933 24.7484 14.6753C25.278 14.0574 26.021 13.7484 26.9772 13.7484C27.7614 13.7484 28.3925 13.9481 28.8706 14.3476C29.3487 14.7436 29.6411 15.3069 29.7477 16.0376H28.7571C28.5714 15.0509 27.9798 14.5575 26.9823 14.5575C26.3185 14.5575 25.8146 14.7897 25.4707 15.254C25.1301 15.7149 24.9582 16.3841 24.9547 17.2616V17.871C24.9547 18.7074 25.1473 19.3732 25.5326 19.8683C25.9178 20.3599 26.4389 20.6057 27.0958 20.6057C27.4673 20.6057 27.7923 20.5648 28.0709 20.4828C28.3495 20.4009 28.58 20.2626 28.7623 20.068V18.3933H27.0236V17.5944H29.7477V20.3292Z" fill="#181818"/>
<path d="M31.0014 18.4855C31.0014 17.9427 31.108 17.4545 31.3213 17.0209C31.538 16.5873 31.8372 16.2527 32.219 16.0171C32.6042 15.7815 33.0428 15.6637 33.5346 15.6637C34.2948 15.6637 34.9087 15.9249 35.3765 16.4473C35.8477 16.9696 36.0833 17.6644 36.0833 18.5316V18.5982C36.0833 19.1376 35.9784 19.6224 35.7686 20.0526C35.5622 20.4794 35.2647 20.8123 34.876 21.0513C34.4908 21.2903 34.0471 21.4098 33.5449 21.4098C32.7882 21.4098 32.1743 21.1486 31.7031 20.6262C31.2353 20.1038 31.0014 19.4125 31.0014 18.5521V18.4855ZM31.961 18.5982C31.961 19.2127 32.1038 19.7061 32.3893 20.0782C32.6782 20.4504 33.0634 20.6365 33.5449 20.6365C34.0299 20.6365 34.4151 20.4487 34.7006 20.0731C34.9861 19.6941 35.1288 19.1649 35.1288 18.4855C35.1288 17.8778 34.9827 17.3862 34.6903 17.0106C34.4014 16.6316 34.0162 16.4422 33.5346 16.4422C33.0634 16.4422 32.6833 16.6282 32.3944 17.0004C32.1055 17.3725 31.961 17.9051 31.961 18.5982Z" fill="#181818"/>
<path d="M37.0275 18.4855C37.0275 17.9427 37.1341 17.4545 37.3473 17.0209C37.564 16.5873 37.8633 16.2527 38.2451 16.0171C38.6303 15.7815 39.0688 15.6637 39.5607 15.6637C40.3208 15.6637 40.9348 15.9249 41.4025 16.4473C41.8738 16.9696 42.1094 17.6644 42.1094 18.5316V18.5982C42.1094 19.1376 42.0045 19.6224 41.7947 20.0526C41.5883 20.4794 41.2908 20.8123 40.9021 21.0513C40.5169 21.2903 40.0732 21.4098 39.571 21.4098C38.8143 21.4098 38.2003 21.1486 37.7291 20.6262C37.2614 20.1038 37.0275 19.4125 37.0275 18.5521V18.4855ZM37.9871 18.5982C37.9871 19.2127 38.1298 19.7061 38.4153 20.0782C38.7042 20.4504 39.0895 20.6365 39.571 20.6365C40.056 20.6365 40.4412 20.4487 40.7267 20.0731C41.0122 19.6941 41.1549 19.1649 41.1549 18.4855C41.1549 17.8778 41.0087 17.3862 40.7164 17.0106C40.4274 16.6316 40.0422 16.4422 39.5607 16.4422C39.0895 16.4422 38.7094 16.6282 38.4205 17.0004C38.1316 17.3725 37.9871 17.9051 37.9871 18.5982Z" fill="#181818"/>
<path d="M43.0793 18.4906C43.0793 17.6269 43.2805 16.9406 43.683 16.4319C44.0854 15.9198 44.6185 15.6637 45.2823 15.6637C45.9634 15.6637 46.4948 15.9027 46.8766 16.3807L46.923 15.7661H47.7949V21.1742C47.7949 21.8912 47.5799 22.4562 47.15 22.8693C46.7235 23.2824 46.1491 23.489 45.4268 23.489C45.0244 23.489 44.6305 23.4036 44.2453 23.2329C43.8601 23.0622 43.566 22.8283 43.3631 22.5313L43.8584 21.9629C44.2677 22.4647 44.7681 22.7157 45.3597 22.7157C45.8241 22.7157 46.1852 22.5859 46.4432 22.3265C46.7046 22.067 46.8353 21.7017 46.8353 21.2305V20.7542C46.4535 21.1913 45.9324 21.4098 45.272 21.4098C44.6185 21.4098 44.0888 21.1486 43.683 20.6262C43.2805 20.1038 43.0793 19.392 43.0793 18.4906ZM44.0389 18.5982C44.0389 19.223 44.1679 19.7146 44.4259 20.0731C44.6839 20.4282 45.045 20.6057 45.5093 20.6057C46.1113 20.6057 46.5532 20.3343 46.8353 19.7914V17.2616C46.5429 16.7324 46.1044 16.4678 45.5197 16.4678C45.0553 16.4678 44.6925 16.647 44.431 17.0055C44.1696 17.364 44.0389 17.8949 44.0389 18.5982Z" fill="#181818"/>
<path d="M50.2765 21.3073H49.3221V13.4411H50.2765V21.3073Z" fill="#181818"/>
<path d="M54.1254 21.4098C53.3687 21.4098 52.753 21.1639 52.2783 20.6723C51.8037 20.1772 51.5663 19.5166 51.5663 18.6904V18.5163C51.5663 17.9666 51.6713 17.4766 51.8811 17.0465C52.0943 16.6129 52.3901 16.2749 52.7685 16.0325C53.1502 15.7866 53.563 15.6637 54.0067 15.6637C54.7324 15.6637 55.2965 15.901 55.6989 16.3756C56.1014 16.8501 56.3026 17.5296 56.3026 18.4138V18.8082H52.5208C52.5346 19.3544 52.6945 19.7966 53.0006 20.1346C53.3102 20.4692 53.7023 20.6365 54.1769 20.6365C54.514 20.6365 54.7995 20.5682 55.0334 20.4316C55.2673 20.295 55.4719 20.1141 55.6473 19.8888L56.2303 20.3394C55.7626 21.053 55.0609 21.4098 54.1254 21.4098ZM54.0067 16.4422C53.6215 16.4422 53.2981 16.5821 53.0367 16.8621C52.7753 17.1386 52.6137 17.5279 52.5518 18.0297H55.3481V17.958C55.3206 17.4766 55.1899 17.1045 54.956 16.8416C54.7221 16.5753 54.4057 16.4422 54.0067 16.4422Z" fill="#181818"/>
<path d="M61.1729 18.3882V21.3073H60.1824V13.8508H62.9529C63.7749 13.8508 64.4181 14.0591 64.8825 14.4756C65.3503 14.8921 65.5841 15.4435 65.5841 16.1298C65.5841 16.8536 65.3554 17.4118 64.8979 17.8044C64.4439 18.1936 63.7921 18.3882 62.9426 18.3882H61.1729ZM61.1729 17.5842H62.9529C63.4826 17.5842 63.8885 17.4613 64.1705 17.2155C64.4525 16.9662 64.5936 16.6077 64.5936 16.14C64.5936 15.6962 64.4525 15.3411 64.1705 15.0748C63.8885 14.8085 63.5015 14.6702 63.0097 14.66H61.1729V17.5842Z" fill="#181818"/>
<path d="M67.7356 21.3073H66.7811V13.4411H67.7356V21.3073Z" fill="#181818"/>
<path d="M72.7143 21.3073C72.6592 21.1981 72.6145 21.0035 72.5801 20.7235C72.1364 21.181 71.6067 21.4098 70.9911 21.4098C70.4407 21.4098 69.9884 21.2561 69.6342 20.9488C69.2833 20.6382 69.1079 20.2455 69.1079 19.771C69.1079 19.194 69.3281 18.7467 69.7683 18.4292C70.212 18.1083 70.8346 17.9478 71.636 17.9478H72.5647V17.5125C72.5647 17.1813 72.4649 16.9184 72.2654 16.7238C72.0659 16.5258 71.7718 16.4268 71.3832 16.4268C71.0427 16.4268 70.7572 16.5121 70.5267 16.6828C70.2963 16.8536 70.1811 17.0601 70.1811 17.3025H69.2214C69.2214 17.026 69.3195 16.7597 69.5155 16.5036C69.715 16.2441 69.9833 16.0393 70.3204 15.8891C70.6609 15.7388 71.0341 15.6637 71.4399 15.6637C72.0831 15.6637 72.587 15.8242 72.9516 16.1451C73.3162 16.4626 73.5054 16.9014 73.5191 17.4613V20.0117C73.5191 20.5204 73.5845 20.9249 73.7152 21.2254V21.3073H72.7143ZM71.1304 20.5852C71.4296 20.5852 71.7134 20.5084 71.9817 20.3548C72.2499 20.2011 72.4443 20.0014 72.5647 19.7556V18.6187H71.8166C70.6471 18.6187 70.0624 18.9584 70.0624 19.6378C70.0624 19.9348 70.1621 20.167 70.3616 20.3343C70.5611 20.5016 70.8174 20.5852 71.1304 20.5852Z" fill="#181818"/>
<path d="M76.7592 19.9195L78.0593 15.7661H79.0808L76.8365 22.1626C76.4892 23.0844 75.9371 23.5453 75.1804 23.5453L74.9998 23.53L74.6438 23.4634V22.6952L74.9018 22.7157C75.2251 22.7157 75.4762 22.6508 75.6551 22.5211C75.8374 22.3913 75.987 22.154 76.1039 21.8092L76.3155 21.2459L74.324 15.7661H75.3661L76.7592 19.9195Z" fill="#181818"/>
<path d="M17.7699 13.6153L14.2069 11.5587L11.2695 14.3963L13.9549 16.9996L17.7699 14.7521C17.873 14.6938 17.9587 14.6093 18.0183 14.5071C18.0779 14.405 18.1093 14.2889 18.1093 14.1707C18.1093 14.0524 18.0779 13.9363 18.0183 13.8342C17.9587 13.732 17.873 13.6475 17.7699 13.5892V13.6153Z" fill="#181818"/>
<path d="M13.5989 11.2116L9.67086 8.9467L1.06738 4.53844L10.7832 13.9277L13.5989 11.2116Z" fill="#181818"/>
<path d="M1.20703 24.1066L9.68886 19.438L13.3475 17.3293L10.7838 14.8562L1.20703 24.1066Z" fill="#181818"/>
<path d="M0.49394 4.92026L0.476562 23.8723L10.3054 14.3963L0.49394 4.92026Z" fill="#181818"/>
</svg>
