<svg width="32" height="32" viewBox="0 0 32 32" fill="none" xmlns="http://www.w3.org/2000/svg">
<path d="M25 21C25 21.5523 24.5523 22 24 22H8C7.44772 22 7 21.5523 7 21V21C7 20.4477 7.44772 20 8 20H24C24.5523 20 25 20.4477 25 21V21ZM25 16C25 16.5523 24.5523 17 24 17H8C7.44772 17 7 16.5523 7 16V16C7 15.4477 7.44772 15 8 15H24C24.5523 15 25 15.4477 25 16V16ZM25 11C25 11.5523 24.5523 12 24 12H8C7.44772 12 7 11.5523 7 11V11C7 10.4477 7.44772 10 8 10H24C24.5523 10 25 10.4477 25 11V11Z" fill="#6B3BA8"/>
</svg>
