<svg width="20" height="21" viewBox="0 0 20 21" fill="none" xmlns="http://www.w3.org/2000/svg">
<g clip-path="url(#clip0)">
<path d="M19.65 7.43008C19.3575 7.08877 18.9186 6.86935 18.4798 6.86935H17.2608L12.5555 1.06699C12.263 0.701293 11.751 0.628154 11.3609 0.89633C10.9952 1.18889 10.9221 1.70086 11.1903 2.09093C11.1903 2.11531 11.2147 2.11531 11.2147 2.13969L15.091 6.86935H4.65652L8.50851 2.13969C8.82544 1.79838 8.80106 1.26203 8.45975 0.94509C8.11843 0.628154 7.58208 0.652534 7.26514 0.993849C7.24076 1.01823 7.21638 1.04261 7.192 1.06699L2.48673 6.89373H1.51154C0.682631 6.89373 0 7.57636 0 8.40527C0 8.50279 0 8.60031 0.0243797 8.69783L1.97475 18.5228C2.16979 19.5468 3.07184 20.2782 4.12017 20.2782H15.8712C16.9195 20.2782 17.8215 19.5468 18.0166 18.5228L19.967 8.69783C20.0645 8.25899 19.9426 7.79578 19.65 7.43008ZM7.46018 15.4022C7.46018 15.8655 7.07011 16.2555 6.60689 16.2555C6.14368 16.2555 5.7536 15.8655 5.7536 15.4022V11.9403C5.7536 11.4771 6.14368 11.087 6.60689 11.087C7.07011 11.087 7.46018 11.4771 7.46018 11.9403V15.4022V15.4022ZM10.849 15.4022C10.849 15.8655 10.4589 16.2555 9.99567 16.2555C9.53245 16.2555 9.14238 15.8655 9.14238 15.4022V11.9403C9.14238 11.4771 9.53245 11.087 9.99567 11.087C10.4589 11.087 10.849 11.4771 10.849 11.9403V15.4022V15.4022ZM14.2134 15.4022C14.2134 15.8655 13.8233 16.2555 13.3601 16.2555C12.8968 16.2555 12.5068 15.8655 12.5068 15.4022V11.9403C12.5068 11.4771 12.8968 11.087 13.3601 11.087C13.8233 11.087 14.2134 11.4771 14.2134 11.9403V15.4022Z" fill="#6B3BA8"/>
</g>
<defs>
<clipPath id="clip0">
<rect width="20" height="20" fill="white" transform="translate(0 0.5)"/>
</clipPath>
</defs>
</svg>
