<svg width="36" height="36" viewBox="0 0 36 36" fill="none" xmlns="http://www.w3.org/2000/svg">
<rect width="36" height="36" rx="8" fill="#6B3BA8"/>
<path d="M22.5 6H13.5C9.3585 6 6 9.3585 6 13.5V22.5C6 26.6415 9.3585 30 13.5 30H22.5C26.6415 30 30 26.6415 30 22.5V13.5C30 9.3585 26.6415 6 22.5 6ZM27.75 22.5C27.75 25.395 25.395 27.75 22.5 27.75H13.5C10.605 27.75 8.25 25.395 8.25 22.5V13.5C8.25 10.605 10.605 8.25 13.5 8.25H22.5C25.395 8.25 27.75 10.605 27.75 13.5V22.5Z" fill="white"/>
<path d="M17.9999 12C14.6864 12 11.9999 14.6865 11.9999 18C11.9999 21.3135 14.6864 24 17.9999 24C21.3134 24 23.9999 21.3135 23.9999 18C23.9999 14.6865 21.3134 12 17.9999 12ZM17.9999 21.75C15.9329 21.75 14.2499 20.067 14.2499 18C14.2499 15.9315 15.9329 14.25 17.9999 14.25C20.0669 14.25 21.7499 15.9315 21.7499 18C21.7499 20.067 20.0669 21.75 17.9999 21.75Z" fill="white"/>
<path d="M24.45 12.3493C24.8915 12.3493 25.2495 11.9914 25.2495 11.5499C25.2495 11.1083 24.8915 10.7504 24.45 10.7504C24.0084 10.7504 23.6505 11.1083 23.6505 11.5499C23.6505 11.9914 24.0084 12.3493 24.45 12.3493Z" fill="white"/>
</svg>
