<svg width="20" height="21" viewBox="0 0 20 21" fill="none" xmlns="http://www.w3.org/2000/svg">
<g clip-path="url(#clip0)">
<path d="M19.65 7.43014C19.3575 7.08883 18.9186 6.86941 18.4798 6.86941H17.2608L12.5555 1.06705C12.263 0.701353 11.751 0.628214 11.3609 0.89639C10.9952 1.18895 10.9221 1.70092 11.1903 2.09099C11.1903 2.11537 11.2147 2.11537 11.2147 2.13975L15.091 6.86941H4.65652L8.50851 2.13975C8.82544 1.79844 8.80106 1.26209 8.45975 0.94515C8.11843 0.628214 7.58208 0.652594 7.26514 0.993909C7.24076 1.01829 7.21638 1.04267 7.192 1.06705L2.48673 6.89379H1.51154C0.682631 6.89379 0 7.57642 0 8.40533C0 8.50285 0 8.60037 0.0243797 8.69789L1.97475 18.5229C2.16979 19.5468 3.07184 20.2782 4.12017 20.2782H15.8712C16.9195 20.2782 17.8215 19.5468 18.0166 18.5229L19.967 8.69789C20.0645 8.25905 19.9426 7.79584 19.65 7.43014ZM7.46018 15.4023C7.46018 15.8655 7.07011 16.2556 6.60689 16.2556C6.14368 16.2556 5.7536 15.8655 5.7536 15.4023V11.9404C5.7536 11.4772 6.14368 11.0871 6.60689 11.0871C7.07011 11.0871 7.46018 11.4772 7.46018 11.9404V15.4023ZM10.849 15.4023C10.849 15.8655 10.4589 16.2556 9.99567 16.2556C9.53245 16.2556 9.14238 15.8655 9.14238 15.4023V11.9404C9.14238 11.4772 9.53245 11.0871 9.99567 11.0871C10.4589 11.0871 10.849 11.4772 10.849 11.9404V15.4023ZM14.2134 15.4023C14.2134 15.8655 13.8233 16.2556 13.3601 16.2556C12.8968 16.2556 12.5068 15.8655 12.5068 15.4023V11.9404C12.5068 11.4772 12.8968 11.0871 13.3601 11.0871C13.8233 11.0871 14.2134 11.4772 14.2134 11.9404V15.4023Z" fill="#D3D3D3"/>
</g>
<defs>
<clipPath id="clip0">
<rect width="20" height="20" fill="white" transform="translate(0 0.5)"/>
</clipPath>
</defs>
</svg>
