<svg width="18" height="19" viewBox="0 0 18 19" fill="none" xmlns="http://www.w3.org/2000/svg">
<g clip-path="url(#clip0)">
<rect y="0.5" width="18" height="18" rx="9" fill="#7479FF"/>
<path d="M2.71552 9.5L3.18103 9.96552H4.11207L3.87931 9.03448H5.0431L4.81034 9.96552H5.97414L5.74138 9.03448H6.90517L6.67241 9.96552H7.83621L7.60345 9.03448H8.53448L9 9.5L9.46552 9.03448V8.10345L8.53448 8.33621V7.17241L9.46552 7.40517V6.24138L8.53448 6.47414V5.31034L9.46552 5.5431V4.37931L8.53448 4.61207V3.68103L9 3.21552L8.53448 2.75H7.60345L7.83621 3.68103H6.67241L6.90517 2.75H5.74138L5.97414 3.68103H4.81034L5.0431 2.75H3.87931L4.11207 3.68103H3.18103L2.71552 3.21552L2.25 3.68103V4.61207L3.18103 4.37931V5.5431L2.25 5.31034V6.47414L3.18103 6.24138V7.40517L2.25 7.17241V8.33621L3.18103 8.10345V9.03448L2.71552 9.5Z" fill="#FFCD01"/>
<path d="M9.00012 9.5L9.46564 9.96552H10.3967L10.1639 9.03448H11.3277L11.095 9.96552H12.2587L12.026 9.03448H13.1898L12.957 9.96552H14.1208L13.8881 9.03448H14.8191L15.2846 9.5L15.7501 9.03448V8.10345L14.8191 8.33621V7.17241L15.7501 7.40517V6.24138L14.8191 6.47414V5.31034L15.7501 5.5431V4.37931L14.8191 4.61207V3.68103L15.2846 3.21552L14.8191 2.75H13.8881L14.1208 3.68103H12.957L13.1898 2.75H12.026L12.2587 3.68103H11.095L11.3277 2.75H10.1639L10.3967 3.68103H9.46564L9.00012 3.21552L8.53461 3.68103V4.61207L9.46564 4.37931V5.5431L8.53461 5.31034V6.47414L9.46564 6.24138V7.40517L8.53461 7.17241V8.33621L9.46564 8.10345V9.03448L9.00012 9.5Z" fill="#8726E2"/>
<path d="M2.71552 15.7844L3.18103 16.2499H4.11207L3.87931 15.3189H5.0431L4.81034 16.2499H5.97414L5.74138 15.3189H6.90517L6.67241 16.2499H7.83621L7.60345 15.3189H8.53448L9 15.7844L9.46552 15.3189V14.3879L8.53448 14.6206V13.4568L9.46552 13.6896V12.5258L8.53448 12.7586V11.5948L9.46552 11.8275V10.6637L8.53448 10.8965V9.96546L9 9.49994L8.53448 9.03442H7.60345L7.83621 9.96546H6.67241L6.90517 9.03442H5.74138L5.97414 9.96546H4.81034L5.0431 9.03442H3.87931L4.11207 9.96546H3.18103L2.71552 9.49994L2.25 9.96546V10.8965L3.18103 10.6637V11.8275L2.25 11.5948V12.7586L3.18103 12.5258V13.6896L2.25 13.4568V14.6206L3.18103 14.3879V15.3189L2.71552 15.7844Z" fill="#FF2B63"/>
<path d="M9.00012 15.7844L9.46564 16.2499H10.3967L10.1639 15.3189H11.3277L11.095 16.2499H12.2587L12.026 15.3189H13.1898L12.957 16.2499H14.1208L13.8881 15.3189H14.8191L15.2846 15.7844L15.7501 15.3189V14.3879L14.8191 14.6206V13.4568L15.7501 13.6896V12.5258L14.8191 12.7586V11.5948L15.7501 11.8275V10.6637L14.8191 10.8965V9.96546L15.2846 9.49994L14.8191 9.03442H13.8881L14.1208 9.96546H12.957L13.1898 9.03442H12.026L12.2587 9.96546H11.095L11.3277 9.03442H10.1639L10.3967 9.96546H9.46564L9.00012 9.49994L8.53461 9.96546V10.8965L9.46564 10.6637V11.8275L8.53461 11.5948V12.7586L9.46564 12.5258V13.6896L8.53461 13.4568V14.6206L9.46564 14.3879V15.3189L9.00012 15.7844Z" fill="#48BDFF"/>
<path d="M5.74096 5.3103C5.69358 5.31031 5.64734 5.32477 5.6084 5.35176C5.56946 5.37874 5.53968 5.41697 5.52304 5.46133L4.82477 7.3234L5.26061 7.48686L5.37853 7.17237H6.1034L6.22132 7.48686L6.65716 7.3234L5.95888 5.46133C5.94225 5.41697 5.91247 5.37874 5.87353 5.35176C5.83459 5.32477 5.78834 5.31031 5.74096 5.3103ZM5.55313 6.70685L5.74096 6.20596L5.9288 6.70685H5.55313Z" fill="#FF2B63"/>
<path d="M13.1897 6.00858C13.1894 5.82345 13.1158 5.64597 12.9849 5.51506C12.854 5.38416 12.6765 5.31052 12.4914 5.3103H11.5603C11.4986 5.3103 11.4394 5.33483 11.3957 5.37848C11.3521 5.42213 11.3276 5.48133 11.3276 5.54306V7.40513C11.3276 7.46686 11.3521 7.52607 11.3957 7.56972C11.4394 7.61337 11.4986 7.63789 11.5603 7.63789H12.4914C12.6262 7.63796 12.7582 7.59897 12.8713 7.52565C12.9844 7.45232 13.0739 7.34779 13.1289 7.2247C13.1839 7.1016 13.2021 6.96521 13.1813 6.832C13.1604 6.6988 13.1014 6.57449 13.0114 6.4741C13.1263 6.34628 13.1898 6.18045 13.1897 6.00858ZM12.4914 7.17237H11.7931V6.70685H12.4914C12.5531 6.70685 12.6123 6.73138 12.656 6.77503C12.6996 6.81868 12.7241 6.87788 12.7241 6.93961C12.7241 7.00134 12.6996 7.06055 12.656 7.1042C12.6123 7.14785 12.5531 7.17237 12.4914 7.17237ZM12.4914 6.24134H11.7931V5.77582H12.4914C12.5531 5.77582 12.6123 5.80034 12.656 5.84399C12.6996 5.88764 12.7241 5.94685 12.7241 6.00858C12.7241 6.07031 12.6996 6.12951 12.656 6.17316C12.6123 6.21681 12.5531 6.24134 12.4914 6.24134Z" fill="#48BDFF"/>
<path d="M5.76234 12.0602C5.85276 12.0599 5.94145 12.085 6.01836 12.1325C6.09527 12.18 6.15732 12.2482 6.19749 12.3292L6.61383 12.121C6.51793 11.9292 6.36006 11.7754 6.16581 11.6845C5.97157 11.5936 5.75232 11.5709 5.54359 11.6202C5.33487 11.6695 5.14889 11.7878 5.0158 11.9559C4.88271 12.1241 4.8103 12.3323 4.8103 12.5468V12.9703C4.8103 13.1847 4.88271 13.3929 5.0158 13.5611C5.14889 13.7293 5.33487 13.8476 5.54359 13.8968C5.75232 13.9461 5.97157 13.9235 6.16581 13.8326C6.36006 13.7417 6.51793 13.5878 6.61383 13.396L6.19749 13.1879C6.14847 13.2859 6.06779 13.3645 5.96852 13.4109C5.86925 13.4574 5.75721 13.4689 5.65055 13.4438C5.54389 13.4186 5.44885 13.3581 5.38084 13.2722C5.31283 13.1862 5.27582 13.0799 5.27582 12.9703V12.5468C5.27596 12.4178 5.32726 12.2941 5.41847 12.2029C5.50968 12.1117 5.63335 12.0604 5.76234 12.0602Z" fill="#FFCD01"/>
<path d="M12.0259 11.5948H11.5603C11.4986 11.5948 11.4394 11.6194 11.3957 11.663C11.3521 11.7067 11.3276 11.7659 11.3276 11.8276V13.6897C11.3276 13.7514 11.3521 13.8106 11.3957 13.8543C11.4394 13.8979 11.4986 13.9224 11.5603 13.9224H12.0259C12.3345 13.9224 12.6305 13.7998 12.8488 13.5816C13.067 13.3633 13.1896 13.0673 13.1896 12.7586C13.1896 12.45 13.067 12.154 12.8488 11.9357C12.6305 11.7175 12.3345 11.5948 12.0259 11.5948ZM12.0259 13.4569H11.7931V12.0604H12.0259C12.211 12.0604 12.3887 12.1339 12.5196 12.2649C12.6506 12.3958 12.7241 12.5734 12.7241 12.7586C12.7241 12.9438 12.6506 13.1214 12.5196 13.2524C12.3887 13.3833 12.211 13.4569 12.0259 13.4569Z" fill="#8726E2"/>
<path d="M9.46548 5.5431V4.37931L8.53444 4.61207V3.68103L8.99996 3.21552L8.53444 2.75H8.02365C8.05368 3.02051 8.0688 3.29248 8.06892 3.56466C8.0697 4.75184 7.78183 5.92142 7.23012 6.97262C6.67842 8.02383 5.87942 8.92515 4.90195 9.59892L4.8103 9.96552H5.9741L5.74134 9.03448H6.90513L6.67237 9.96552H7.83616L7.60341 9.03448H8.53444L8.99996 9.5L9.46548 9.03448V8.10345L8.53444 8.33621V7.17241L9.46548 7.40517V6.24138L8.53444 6.47414V5.31034L9.46548 5.5431Z" fill="#FFBA01"/>
<path d="M11.1677 9.67418L11.0948 9.96571H12.2586L12.0375 9.08105C11.7621 9.29931 11.4715 9.49753 11.1677 9.67418Z" fill="#691DAF"/>
<path d="M15.7498 5.5431V4.37931L14.8188 4.61207V3.68103L15.2843 3.21552L14.8188 2.75H14.7958C14.8109 2.94203 14.8185 3.13599 14.8188 3.3319C14.8198 4.42557 14.5756 5.50555 14.1042 6.49242C13.6328 7.47929 12.9462 8.34794 12.0948 9.03448H13.1895L12.9567 9.96552H14.1205L13.8877 9.03448H14.8188L15.2843 9.5L15.7498 9.03448V8.10345L14.8188 8.33621V7.17241L15.7498 7.40517V6.24138L14.8188 6.47414V5.31034L15.7498 5.5431Z" fill="#691DAF"/>
<path d="M9.4659 11.8275V10.6637L8.53487 10.8965V9.96546L9.00039 9.49994L8.53487 9.03442H8.53339C8.51346 10.319 8.15623 11.5758 7.49749 12.6788C6.83876 13.7818 5.90167 14.6922 4.78015 15.3189H5.04349L4.81073 16.2499H5.97452L5.74176 15.3189H6.90556L6.6728 16.2499H7.83659L7.60383 15.3189H8.53487L9.00039 15.7844L9.4659 15.3189V14.3879L8.53487 14.6206V13.4568L9.4659 13.6896V12.5258L8.53487 12.7586V11.5948L9.4659 11.8275Z" fill="#E5235F"/>
<path d="M2.96649 16.0357L3.18069 16.2499H4.11172L3.97588 15.7065C3.64788 15.8407 3.31052 15.9507 2.96649 16.0357Z" fill="#E5235F"/>
<path d="M9.05112 15.7334L9 15.7845L9.46552 16.25H10.3966L10.2094 15.5013C9.8302 15.6099 9.44284 15.6875 9.05112 15.7334Z" fill="#3BA4F2"/>
<path d="M15.7495 11.8276V10.6638L15.1261 10.8197C14.775 11.8451 14.2015 12.7802 13.4467 13.558C12.6919 14.3359 11.7745 14.9372 10.7601 15.319H11.3271L11.0944 16.25H12.2582L12.0254 15.319H13.1892L12.9564 16.25H14.1202L13.8875 15.319H14.8185L15.284 15.7845L15.7495 15.319V14.388L14.8185 14.6207V13.4569L15.7495 13.6897V12.5259L14.8185 12.7586V11.5949L15.7495 11.8276Z" fill="#3BA4F2"/>
</g>
<defs>
<clipPath id="clip0">
<rect width="18" height="18" fill="white" transform="translate(0 0.5)"/>
</clipPath>
</defs>
</svg>
