<svg width="18" height="18" viewBox="0 0 18 18" fill="none" xmlns="http://www.w3.org/2000/svg">
<path d="M8.99933 9.74088C11.6892 9.74088 13.8698 7.56031 13.8698 4.87042C13.8698 2.18053 11.6892 0 8.99933 0C6.30944 0 4.12891 2.18057 4.12891 4.87046C4.13221 7.55894 6.31084 9.73757 8.99933 9.74088ZM8.99933 2.2479C10.4477 2.2479 11.6219 3.42204 11.6219 4.87046C11.6219 6.31887 10.4477 7.49301 8.99933 7.49301C7.55091 7.49301 6.37677 6.31887 6.37677 4.87046C6.37677 3.42204 7.55094 2.2479 8.99933 2.2479Z" fill="#8C7AA4"/>
<path d="M13.7705 12.0487C14.2998 11.7 14.6187 11.1089 14.6195 10.4751C14.6269 9.94912 14.33 9.4661 13.8574 9.23502C13.3719 8.9925 12.7907 9.04711 12.3588 9.3759C10.3574 10.835 7.64281 10.835 5.64137 9.3759C5.20886 9.04883 4.62866 8.99429 4.14276 9.23502C3.67039 9.46606 3.37342 9.94855 3.37999 10.4744C3.38111 11.108 3.69993 11.699 4.22896 12.0479C4.90768 12.4993 5.64682 12.8524 6.42442 13.0969C6.5563 13.1379 6.69241 13.1758 6.8328 13.2108L4.56843 15.425C3.97442 16.0013 3.96005 16.9501 4.53639 17.5441C5.11273 18.1381 6.06145 18.1525 6.65549 17.5761C6.66786 17.5641 6.68001 17.5519 6.69195 17.5395L8.9998 15.1507L11.3122 17.544C11.888 18.1385 12.8368 18.1536 13.4312 17.5777C14.0257 17.0019 14.0408 16.0531 13.4649 15.4586C13.4529 15.4462 13.4406 15.434 13.4282 15.422L11.1675 13.21C11.3079 13.1741 11.4445 13.1359 11.5774 13.0954C12.3541 12.8519 13.0926 12.4994 13.7705 12.0487Z" fill="#8C7AA4"/>
</svg>
