<svg width="24" height="24" viewBox="0 0 24 24" fill="none" xmlns="http://www.w3.org/2000/svg">
<g clip-path="url(#clip0)">
<path d="M22.0235 3.10583H1.97648C0.886594 3.10583 0 3.99243 0 5.08232V18.9176C0 20.0072 0.886594 20.8941 1.97648 20.8941H22.0236C23.1132 20.8941 24 20.0072 24 18.9176V5.08232C24 3.99243 23.1131 3.10583 22.0235 3.10583ZM22.3059 18.9176C22.3059 19.0706 22.1766 19.1999 22.0236 19.1999H1.97648C1.82344 19.1999 1.69411 19.0706 1.69411 18.9176V8.05124L11.4293 13.7748C11.6914 13.929 12.0161 13.931 12.2798 13.7799L22.3059 8.03568V18.9176ZM22.3059 6.08324L11.8645 12.0652L1.69411 6.08577V5.08227C1.69411 4.92923 1.82344 4.79994 1.97648 4.79994H22.0236C22.1766 4.79994 22.3059 4.92927 22.3059 5.08227V6.08324V6.08324Z" fill="#8C7AA4"/>
</g>
<defs>
<clipPath id="clip0">
<rect width="24" height="24" fill="white"/>
</clipPath>
</defs>
</svg>
