<svg width="24" height="24" viewBox="0 0 24 24" fill="none" xmlns="http://www.w3.org/2000/svg">
<path d="M21.3836 17.752C21.6173 17.9865 21.7925 18.2727 21.8949 18.5874C21.9974 18.9022 22.0243 19.2367 21.9735 19.5638C21.9227 19.8908 21.7955 20.2014 21.6023 20.4702C21.4092 20.739 21.1554 20.9585 20.8616 21.111C19.1827 22.0084 17.2266 22.2377 15.3856 21.753C10.4996 20.523 3.47663 13.5 2.24663 8.61402C1.76195 6.77308 1.99129 4.81695 2.88863 3.13802C3.04112 2.84423 3.26067 2.59047 3.52948 2.39731C3.79829 2.20414 4.10881 2.07699 4.4359 2.02616C4.76299 1.97533 5.09746 2.00224 5.41221 2.10472C5.72696 2.2072 6.01316 2.38236 6.24763 2.61602L8.33263 4.70002C8.6333 4.99768 8.83676 5.37944 8.9162 5.79501C8.99563 6.21057 8.94732 6.64045 8.77763 7.02802C8.59193 7.46286 8.32826 7.86007 7.99963 8.20002C5.61563 10.584 13.4166 18.385 15.7996 16C16.1396 15.6702 16.5372 15.4055 16.9726 15.219C17.3601 15.049 17.7901 15.0006 18.2057 15.08C18.6214 15.1595 19.0031 15.3631 19.3006 15.664L21.3836 17.752Z" fill="#8C7AA4"/>
</svg>
