<svg width="20" height="20" viewBox="0 0 20 20" fill="none" xmlns="http://www.w3.org/2000/svg">
<path d="M17.8207 14.7934C18.0154 14.9888 18.1614 15.2273 18.2467 15.4896C18.3321 15.7519 18.3546 16.0306 18.3122 16.3032C18.2699 16.5758 18.1639 16.8346 18.0029 17.0586C17.842 17.2826 17.6305 17.4655 17.3857 17.5926C15.9866 18.3404 14.3565 18.5315 12.8223 18.1276C8.75067 17.1026 2.89817 11.2501 1.87317 7.17845C1.46927 5.64432 1.66038 4.01421 2.40817 2.61511C2.53525 2.37028 2.7182 2.15882 2.94221 1.99785C3.16622 1.83687 3.42498 1.73092 3.69756 1.68856C3.97014 1.6462 4.24886 1.66863 4.51115 1.75403C4.77345 1.83942 5.01195 1.98539 5.20733 2.18011L6.94483 3.91678C7.1954 4.16483 7.36494 4.48296 7.43114 4.82926C7.49734 5.17557 7.45708 5.5338 7.31567 5.85678C7.16092 6.21914 6.94119 6.55015 6.66733 6.83345C4.68067 8.82011 11.1815 15.3209 13.1673 13.3334C13.4507 13.0586 13.782 12.838 14.1448 12.6826C14.4678 12.541 14.8261 12.5006 15.1724 12.5668C15.5188 12.633 15.8369 12.8027 16.0848 13.0534L17.8207 14.7934Z" fill="#D3D3D3"/>
</svg>
