<svg width="108" height="108" viewBox="0 0 108 108" fill="none" xmlns="http://www.w3.org/2000/svg">
<rect x="0.5" y="0.5" width="107" height="107" rx="11.5" fill="white" stroke="#F7F1FE"/>
<path d="M64.4 47.4667H60.0267L58.5067 44.7201C58.3636 44.4724 58.0993 44.3199 57.8133 44.3201H50.2133C49.9273 44.3199 49.663 44.4724 49.52 44.7201L47.9733 47.4667H43.6C42.7164 47.4667 42 48.1831 42 49.0667V62.0801C42 62.9637 42.7164 63.6801 43.6 63.6801H64.4C65.2836 63.6801 66 62.9637 66 62.0801V49.0667C66 48.1831 65.2836 47.4667 64.4 47.4667ZM54 60.6134C50.7305 60.6134 48.08 57.9629 48.08 54.6934C48.08 51.4239 50.7305 48.7734 54 48.7734C57.2695 48.7734 59.92 51.4239 59.92 54.6934C59.9054 57.9568 57.2634 60.5988 54 60.6134Z" fill="#8C7AA4"/>
<path d="M54.001 57.6534C55.6358 57.6534 56.961 56.3282 56.961 54.6934C56.961 53.0586 55.6358 51.7334 54.001 51.7334C52.3663 51.7334 51.041 53.0586 51.041 54.6934C51.041 56.3282 52.3663 57.6534 54.001 57.6534Z" fill="#8C7AA4"/>
</svg>
