<svg width="21" height="20" viewBox="0 0 21 20" fill="none" xmlns="http://www.w3.org/2000/svg">
<g clip-path="url(#clip0)">
<path d="M10.5 0C5.0122 0 0.5 4.5122 0.5 10C0.5 15.4878 5.0122 20 10.5 20C15.9878 20 20.5 15.4878 20.5 10C20.5 4.5122 15.9878 0 10.5 0ZM15.1829 10.9268H11.4268V14.6829C11.4268 15.2195 11.0122 15.6098 10.5 15.6098C9.9878 15.6098 9.57317 15.1951 9.57317 14.6829V10.9268H5.81707C5.28049 10.9268 4.89024 10.5122 4.89024 10C4.89024 9.4878 5.28049 9.07317 5.81707 9.07317H9.57317V5.31707C9.57317 4.78049 9.9878 4.39024 10.5 4.39024C11.0122 4.39024 11.4268 4.80488 11.4268 5.31707V9.07317H15.1829C15.7195 9.07317 16.1098 9.4878 16.1098 10C16.1098 10.5122 15.6951 10.9268 15.1829 10.9268Z" fill="#6B3BA8"/>
</g>
<defs>
<clipPath id="clip0">
<rect width="20" height="20" fill="white" transform="translate(0.5)"/>
</clipPath>
</defs>
</svg>
