<svg width="24" height="24" viewBox="0 0 24 24" fill="none" xmlns="http://www.w3.org/2000/svg">
<path d="M3.87905 21C3.7052 21 3.53524 20.9485 3.39068 20.8519C3.24612 20.7554 3.13344 20.6181 3.06691 20.4575C3.00038 20.2968 2.98297 20.1201 3.0169 19.9496C3.05082 19.7791 3.13455 19.6225 3.2575 19.4995L19.4992 3.25746C19.6641 3.09261 19.8877 3 20.1208 3C20.3539 3 20.5775 3.09261 20.7423 3.25746C20.9072 3.42231 20.9998 3.64589 20.9998 3.87902C20.9998 4.11215 20.9072 4.33573 20.7423 4.50057L4.50059 20.7427C4.41905 20.8244 4.32216 20.8892 4.21549 20.9333C4.10883 20.9775 3.99449 21.0002 3.87905 21Z" fill="#8C7AA4"/>
<path d="M20.1207 21C20.0053 21.0002 19.891 20.9775 19.7843 20.9333C19.6776 20.8892 19.5807 20.8244 19.4992 20.7427L3.25745 4.50057C3.09261 4.33573 3 4.11215 3 3.87902C3 3.64589 3.09261 3.42231 3.25745 3.25746C3.4223 3.09261 3.64587 3 3.879 3C4.11212 3 4.3357 3.09261 4.50054 3.25746L20.7423 19.4995C20.8652 19.6225 20.949 19.7791 20.9829 19.9496C21.0168 20.1201 20.9994 20.2968 20.9329 20.4575C20.8663 20.6181 20.7537 20.7554 20.6091 20.8519C20.4646 20.9485 20.2946 21 20.1207 21V21Z" fill="#8C7AA4"/>
</svg>
