<svg width="24" height="24" viewBox="0 0 24 24" fill="none" xmlns="http://www.w3.org/2000/svg">
<path d="M14.6976 12.4988C14.6976 13.9574 13.4877 15.1398 11.9951 15.1398C10.5026 15.1398 9.29259 13.9574 9.29259 12.4988C9.29259 11.0403 10.5026 9.8579 11.9951 9.8579C13.4877 9.85788 14.6976 11.0403 14.6976 12.4988ZM12 7C10.4546 7.00699 8.85279 7.39073 7.33644 8.12541C6.21057 8.69338 5.11335 9.49469 4.16091 10.4838C3.69312 10.9886 3.09647 11.7197 3 12.4997C3.0114 13.1754 3.72195 14.0093 4.16091 14.5157C5.05405 15.4659 6.1227 16.2448 7.33644 16.8746C8.75051 17.5746 10.3157 17.9776 12 18C13.5468 17.9929 15.1483 17.6047 16.663 16.8746C17.7889 16.3066 18.8866 15.5047 19.8391 14.5157C20.3069 14.0108 20.9035 13.2797 21 12.4997C20.9886 11.824 20.278 10.99 19.8391 10.4837C18.9459 9.53351 17.8767 8.75516 16.663 8.12538C15.2497 7.42593 13.6806 7.02569 12 7ZM11.9989 8.36549C14.3406 8.36549 16.239 10.2167 16.239 12.5003C16.239 14.7839 14.3406 16.6351 11.9989 16.6351C9.65707 16.6351 7.75873 14.7839 7.75873 12.5003C7.75873 10.2167 9.65707 8.36549 11.9989 8.36549Z" fill="#8C7AA4"/>
</svg>
