<svg width="17" height="16" viewBox="0 0 17 16" fill="none" xmlns="http://www.w3.org/2000/svg">
<g clip-path="url(#clip0)">
<path d="M8.45648 12.4553H9.39761C9.39761 12.4553 9.68212 12.4238 9.82683 12.2673C9.96072 12.1235 9.95579 11.8538 9.95579 11.8538C9.95579 11.8538 9.93709 10.5908 10.5238 10.4047C11.1017 10.2216 11.844 11.6254 12.6305 12.1659C13.2251 12.5744 13.677 12.4848 13.677 12.4848L15.7808 12.4553C15.7808 12.4553 16.8814 12.3874 16.3596 11.5221C16.3173 11.4512 16.0554 10.8822 14.7953 9.71264C13.4762 8.48798 13.6534 8.68684 15.2423 6.56929C16.21 5.27967 16.5969 4.49211 16.4758 4.15543C16.3606 3.8345 15.6489 3.91916 15.6489 3.91916L13.2822 3.93294C13.2822 3.93294 13.107 3.90931 12.9761 3.98709C12.8491 4.06387 12.7674 4.24107 12.7674 4.24107C12.7674 4.24107 12.3923 5.2393 11.8922 6.0879C10.8379 7.87861 10.4155 7.97312 10.2433 7.86187C9.84258 7.60296 9.943 6.82033 9.943 6.2651C9.943 4.52952 10.2058 3.80595 9.4301 3.6189C9.17217 3.55688 8.98316 3.51554 8.32456 3.50864C7.47991 3.49978 6.76421 3.5116 6.3596 3.70947C6.08987 3.84139 5.88215 4.13574 6.00914 4.15247C6.16567 4.17315 6.52007 4.24796 6.7081 4.50392C6.95126 4.83371 6.9424 5.57599 6.9424 5.57599C6.9424 5.57599 7.08219 7.61872 6.61655 7.8727C6.2966 8.04695 5.85852 7.69156 4.91837 6.06624C4.43698 5.23438 4.07273 4.31392 4.07273 4.31392C4.07273 4.31392 4.00284 4.14263 3.87781 4.05108C3.72621 3.93983 3.51357 3.90439 3.51357 3.90439L1.26312 3.91817C1.26312 3.91817 0.925452 3.92802 0.801411 4.0747C0.691153 4.20563 0.792551 4.47537 0.792551 4.47537C0.792551 4.47537 2.55471 8.59726 4.5492 10.6754C6.37929 12.5803 8.45648 12.4553 8.45648 12.4553Z" fill="#8C7AA4"/>
</g>
<defs>
<clipPath id="clip0">
<rect width="15.75" height="15.75" fill="white" transform="translate(0.75 0.125)"/>
</clipPath>
</defs>
</svg>
