<svg width="18" height="18" viewBox="0 0 18 18" fill="none" xmlns="http://www.w3.org/2000/svg">
<g clip-path="url(#clip0)">
<path d="M8.45648 13.4553H9.39761C9.39761 13.4553 9.68212 13.4238 9.82683 13.2673C9.96072 13.1235 9.95579 12.8538 9.95579 12.8538C9.95579 12.8538 9.93709 11.5907 10.5238 11.4047C11.1017 11.2216 11.844 12.6254 12.6305 13.1659C13.2251 13.5744 13.677 13.4848 13.677 13.4848L15.7808 13.4553C15.7808 13.4553 16.8814 13.3874 16.3596 12.522C16.3173 12.4512 16.0554 11.8821 14.7953 10.7126C13.4762 9.48797 13.6534 9.68683 15.2423 7.56928C16.21 6.27965 16.5969 5.49209 16.4758 5.15541C16.3606 4.83448 15.6489 4.91914 15.6489 4.91914L13.2822 4.93293C13.2822 4.93293 13.107 4.9093 12.9761 4.98707C12.8491 5.06386 12.7674 5.24106 12.7674 5.24106C12.7674 5.24106 12.3923 6.23929 11.8922 7.08788C10.8379 8.87859 10.4155 8.9731 10.2433 8.86186C9.84258 8.60295 9.943 7.82031 9.943 7.26508C9.943 5.5295 10.2058 4.80593 9.4301 4.61889C9.17217 4.55687 8.98316 4.51552 8.32456 4.50863C7.47991 4.49977 6.76421 4.51158 6.3596 4.70946C6.08987 4.84137 5.88215 5.13572 6.00914 5.15246C6.16567 5.17313 6.52007 5.24795 6.7081 5.50391C6.95126 5.8337 6.9424 6.57597 6.9424 6.57597C6.9424 6.57597 7.08219 8.6187 6.61655 8.87269C6.2966 9.04694 5.85852 8.69155 4.91837 7.06623C4.43698 6.23437 4.07273 5.31391 4.07273 5.31391C4.07273 5.31391 4.00284 5.14261 3.87781 5.05106C3.72621 4.93982 3.51357 4.90438 3.51357 4.90438L1.26312 4.91816C1.26312 4.91816 0.925452 4.928 0.801411 5.07469C0.691153 5.20562 0.792551 5.47536 0.792551 5.47536C0.792551 5.47536 2.55471 9.59724 4.5492 11.6754C6.37929 13.5803 8.45648 13.4553 8.45648 13.4553Z" fill="#8C7AA4"/>
</g>
<defs>
<clipPath id="clip0">
<rect width="15.75" height="15.75" fill="white" transform="translate(0.75 1.125)"/>
</clipPath>
</defs>
</svg>
