<svg width="24" height="24" viewBox="0 0 24 24" fill="none" xmlns="http://www.w3.org/2000/svg">
<path fill-rule="evenodd" clip-rule="evenodd" d="M20.5528 4.83929C18.4675 2.75151 15.6942 1.60123 12.7396 1.60001C6.6515 1.60001 1.69666 6.55471 1.69421 12.6445C1.69339 14.5912 2.20194 16.4915 3.16856 18.1665L1.60156 23.89L7.4569 22.354C9.07029 23.2341 10.8867 23.6979 12.7351 23.6984H12.7398C18.8272 23.6984 23.7826 18.7433 23.7849 12.6533C23.7861 9.7019 22.6383 6.92694 20.5528 4.83929ZM12.7396 21.8331H12.7358C11.0886 21.8324 9.47299 21.3897 8.06327 20.5534L7.72818 20.3544L4.25353 21.2659L5.18097 17.8782L4.96261 17.5309C4.04361 16.0692 3.55833 14.3797 3.55915 12.6451C3.56105 7.5835 7.67948 3.46549 12.7433 3.46549C15.1954 3.4663 17.5005 4.42244 19.2337 6.15773C20.9669 7.89301 21.9209 10.1996 21.9201 12.6526C21.9179 17.7147 17.7998 21.8331 12.7396 21.8331V21.8331ZM17.7753 14.9574C17.4994 14.8192 16.1424 14.1517 15.8894 14.0595C15.6366 13.9674 15.4524 13.9215 15.2686 14.1977C15.0845 14.4739 14.5557 15.0956 14.3946 15.2797C14.2336 15.4639 14.0728 15.487 13.7967 15.3488C13.5207 15.2107 12.6315 14.9192 11.5772 13.979C10.7569 13.2472 10.203 12.3434 10.0419 12.0672C9.88113 11.7908 10.0406 11.6558 10.163 11.504C10.4618 11.133 10.7609 10.744 10.8529 10.5599C10.945 10.3757 10.8989 10.2145 10.8298 10.0764C10.7609 9.93835 10.209 8.57991 9.97909 8.02715C9.75488 7.48922 9.52754 7.56187 9.35803 7.55344C9.19722 7.54541 9.01315 7.54378 8.82908 7.54378C8.64514 7.54378 8.34611 7.61275 8.09306 7.8892C7.84015 8.16551 7.12726 8.8331 7.12726 10.1915C7.12726 11.55 8.11619 12.8623 8.25414 13.0465C8.39209 13.2307 10.2003 16.0183 12.9687 17.2136C13.6272 17.4982 14.1412 17.6679 14.5421 17.7951C15.2033 18.0051 15.8048 17.9755 16.2804 17.9045C16.8107 17.8251 17.9131 17.2367 18.1433 16.5922C18.3732 15.9474 18.3732 15.3949 18.3041 15.2797C18.2353 15.1646 18.0512 15.0956 17.7753 14.9574V14.9574Z" fill="#8C7AA4"/>
</svg>
